<svg width="11" height="16" viewBox="0 0 11 16" fill="none" xmlns="http://www.w3.org/2000/svg">
<path d="M5.5 0C2.46243 0 0 2.57923 0 5.76087C0 9.02482 3.46029 13.8426 4.89186 15.6951C5.20614 16.1016 5.79386 16.1016 6.10814 15.6951C7.53971 13.8426 11 9.02482 11 5.76087C11 2.57923 8.53757 0 5.5 0ZM5.5 7.81833C4.41493 7.81833 3.53571 6.89741 3.53571 5.76087C3.53571 4.62434 4.41493 3.70342 5.5 3.70342C6.58507 3.70342 7.46429 4.62434 7.46429 5.76087C7.46429 6.89741 6.58507 7.81833 5.5 7.81833Z" fill="#F6C119"/>
</svg>
