<svg width="15" height="16" viewBox="0 0 15 16" fill="none" xmlns="http://www.w3.org/2000/svg">
<path d="M13.3201 11.1364C12.3486 10.3096 11.3599 9.8072 10.4007 10.634L9.82661 11.1315C9.40709 11.495 8.62695 13.1876 5.61184 9.73647C2.59674 6.29267 4.3901 5.7561 4.81207 5.39758L5.38859 4.89759C6.34293 4.07079 5.98229 3.02936 5.29291 1.95622L4.87831 1.30746C4.18648 0.239199 3.43086 -0.463218 2.47408 0.361147L1.95643 0.812353C1.53201 1.11722 0.34952 2.11475 0.062484 4.00738C-0.283431 6.27804 0.808287 8.8804 3.30329 11.734C5.79584 14.59 8.23932 16.0241 10.5503 15.9997C12.4713 15.9777 13.6341 14.9534 13.9972 14.5802L14.5149 14.129C15.4716 13.3047 14.8779 12.4632 13.904 11.6364L13.3201 11.1364Z" fill="#F6C119"/>
</svg>
