<svg width="16" height="13" viewBox="0 0 16 13" fill="none" xmlns="http://www.w3.org/2000/svg">
<path d="M14.4 0H1.6C0.716 0 0 0.727188 0 1.625V11.375C0 12.2728 0.716 13 1.6 13H14.4C15.284 13 16 12.2728 16 11.375V1.625C16 0.727188 15.284 0 14.4 0ZM14.0808 3.45231L8.424 7.04356C8.1648 7.2085 7.8352 7.2085 7.576 7.04356L1.9192 3.45231C1.7208 3.32637 1.6 3.10538 1.6 2.86813C1.6 2.327 2.1864 1.99712 2.6376 2.28394L8 5.6875L13.3624 2.28394C13.8136 1.99712 14.4 2.327 14.4 2.86813C14.4 3.10538 14.2792 3.32637 14.0808 3.45231Z" fill="#F6C119"/>
</svg>
